<?xml version="1.0" encoding="UTF-8" standalone="no"?>
<!-- Created with Inkscape (http://www.inkscape.org/) -->

<svg
   xmlns:dc="http://purl.org/dc/elements/1.1/"
   xmlns:cc="http://creativecommons.org/ns#"
   xmlns:rdf="http://www.w3.org/1999/02/22-rdf-syntax-ns#"
   xmlns:svg="http://www.w3.org/2000/svg"
   xmlns="http://www.w3.org/2000/svg"
   xmlns:xlink="http://www.w3.org/1999/xlink"
   xmlns:sodipodi="http://sodipodi.sourceforge.net/DTD/sodipodi-0.dtd"
   xmlns:inkscape="http://www.inkscape.org/namespaces/inkscape"
   version="1.0"
   width="600"
   height="600"
   id="svg2"
   inkscape:version="0.48.3.1 r9886"
   sodipodi:docname="red_cross.svg"
   inkscape:export-filename="/home/maarten/workspace/AnonCredCheck/res/drawable-hdpi/red_cross0350.png"
   inkscape:export-xdpi="52.5"
   inkscape:export-ydpi="52.5">
  <metadata
     id="metadata3112">
    <rdf:RDF>
      <cc:Work
         rdf:about="">
        <dc:format>image/svg+xml</dc:format>
        <dc:type
           rdf:resource="http://purl.org/dc/dcmitype/StillImage" />
        <dc:title></dc:title>
      </cc:Work>
    </rdf:RDF>
  </metadata>
  <sodipodi:namedview
     pagecolor="#ffffff"
     bordercolor="#666666"
     borderopacity="1"
     objecttolerance="10"
     gridtolerance="10"
     guidetolerance="10"
     inkscape:pageopacity="0"
     inkscape:pageshadow="2"
     inkscape:window-width="1206"
     inkscape:window-height="880"
     id="namedview3110"
     showgrid="false"
     inkscape:zoom="0.39333333"
     inkscape:cx="-147.45763"
     inkscape:cy="300"
     inkscape:window-x="0"
     inkscape:window-y="24"
     inkscape:window-maximized="1"
     inkscape:current-layer="svg2" />
  <defs
     id="defs5">
    <linearGradient
       id="linearGradient4404">
      <stop
         style="stop-color:#ff4444;stop-opacity:1;"
         offset="0"
         id="stop4406" />
      <stop
         style="stop-color:#cc0000;stop-opacity:1;"
         offset="1"
         id="stop4408" />
    </linearGradient>
    <linearGradient
       id="linearGradient4398">
      <stop
         id="stop4400"
         offset="0"
         style="stop-color:#cc0000;stop-opacity:1;" />
      <stop
         id="stop4402"
         offset="1"
         style="stop-color:#cc0000;stop-opacity:0;" />
    </linearGradient>
    <radialGradient
       inkscape:collect="always"
       xlink:href="#linearGradient4404"
       id="radialGradient4396"
       cx="300.1712"
       cy="301.36984"
       fx="300.1712"
       fy="301.36984"
       r="296.94559"
       gradientTransform="matrix(1,0,0,0.99796051,0,0.61464159)"
       gradientUnits="userSpaceOnUse" />
  </defs>
  <path
     d="M 3.2256306,500.60601 C 3.2256306,491.25372 43.758136,444.29477 93.297856,396.25279 C 142.83758,348.21081 190.58002,301.56316 199.39218,292.59134 C 208.20433,283.61953 199.05159,231.54121 179.05273,176.86176 C 137.62307,63.587785 133.84657,25.920941 162.44557,11.22195 C 201.53416,-8.8683761 255.17957,20.811156 300.20945,87.440355 L 345.82828,154.94098 L 431.49626,85.021183 C 487.8258,39.04656 528.03591,18.570758 548.9095,25.231984 C 590.2087,38.411479 614.04278,89.982978 582.83295,98.634538 C 547.40845,108.45442 400.79201,294.00339 401.07018,328.6626 C 401.20186,345.07435 422.03434,388.63634 447.36457,425.46705 C 465.23081,451.44496 489.24604,471.94435 479.71274,486.03505 L 428.75193,561.35761 C 418.86818,575.96632 382.36042,537.01753 339.11325,499.2103 L 263.67191,433.25848 L 180.03742,515.74309 C 134.03845,561.10962 91.093734,597.99391 84.60471,597.70816 C 78.115704,597.42239 3.2256306,509.95831 3.2256306,500.60601 z"
     id="X"
     style="fill:url(#radialGradient4396);fill-opacity:1.0;stroke:none;stroke-width:2;stroke-linejoin:round;stroke-miterlimit:4;stroke-dasharray:none;stroke-opacity:1" />
</svg>
